# ProBuilder 4.5.2
# https://unity3d.com/unity/features/worldbuilding/probuilder
# 21.12.2021 12:10:58

mtllib ./Ditch.mtl
o Ditch

g Ditch
v -25.33716 0 65.40003
v -41.73716 0 65.40002
v -26.83716 41.73899 65.40008
v -62.10002 40 36.10001
v -41.73717 0 -173.3999
v -62.10004 40 -143.1
v -25.33717 0 -173.4
v -26.83717 41.73899 -173.4001
v -26.83717 41.73899 -160.8317
v -26.83717 41.73899 -148.2632
v -26.83717 41.73899 -135.6948
v -26.83717 41.73899 -123.1264
v -26.83717 41.73899 -110.5579
v -26.83716 41.73899 -83.98421
v -43.83717 41.73898 -71.41579
v -43.83717 41.73899 -72.85268
v -43.83717 41.73899 -60.28424
v -43.83717 41.73899 -47.7158
v -43.83717 41.73899 -35.14737
v -43.83717 41.73899 -37.38422
v -27.33715 41.73899 -24.81577
v -27.33715 41.73899 2.557925
v -26.83716 41.73899 15.12636
v -26.83716 41.73899 27.69479
v -26.83716 41.73899 40.26321
v -26.83716 41.73899 52.83165

vt -22.8887 -14.89278
vt -10.36694 -17.27188
vt -21.74345 25.56184
vt 24.10197 23.77724
vt -65.40001 18.93488
vt 173.3999 18.93487
vt -36.1 63.81969
vt 143.1 63.81969
vt 81.21286 3.714402
vt 93.66104 3.46464
vt 46.02991 43.47559
vt 92.52253 45.21505
vt 25.33717 -173.4
vt 41.73717 -173.3999
vt 25.33716 65.40003
vt 41.73716 65.40002
vt -173.3923 45.44952
vt 65.40781 45.43869
vt 65.40733 3.98357
vt -173.3927 3.994407
vt -160.8239 45.44896
vt -148.2555 45.44838
vt -135.6871 45.44781
vt -123.1186 45.44724
vt -110.5502 45.44667
vt -83.97647 45.44547
vt -71.40314 48.11967
vt -72.84003 48.11974
vt -60.27159 48.11916
vt -47.70316 48.1186
vt -35.13472 48.11802
vt -37.37157 48.11813
vt -24.80789 45.52145
vt 2.565808 45.52021
vt 15.1341 45.44097
vt 27.70253 45.4404
vt 40.27095 45.43983
vt 52.83939 45.43926

vn 9.304141E-07 1.130166E-06 -1
vn 0.3146392 -0.1123187 -0.8720039
vn 0.6292773 -0.2246386 -0.7440078
vn 0.8911701 0.4536694 -7.117975E-08
vn 4.449926E-06 -0.6038169 0.797123
vn 0.3254401 -0.2902125 0.7779735
vn 0.6508757 0.02339204 0.7588239
vn 0 1 0
vn -0.9993549 -0.03591444 0
vn -0.721816 0.02759095 0.04447836
vn -0.7387118 -0.01489254 -0.03704315
vn -0.6503051 0.4130902 -0.2037382
vn 0.3064842 0.6336523 -0.2037378
vn 4.768372E-07 -1.087785E-06 5.37881E-07
vn -0.9142228 -0.4052119 1.387397E-07
vn 0.3028486 0.6329423 0.2025181
vn -0.6536899 0.4064057 0.2025182
vn -0.998996 -0.01794695 0.01987357
vn -0.9992465 -0.01197336 0.01987358

usemtl ground13
f 26/38/9 1/19/10 3/18/9
f 26/38/9 25/37/9 1/19/10
f 25/37/9 24/36/9 1/19/10
f 24/36/9 23/35/19 1/19/10
f 23/35/19 22/34/18 1/19/10
f 22/34/18 21/33/17 1/19/10
f 21/33/17 20/32/16 1/19/10
f 20/32/16 19/31/14 1/19/10
f 19/31/14 18/30/15 1/19/10
f 1/19/10 18/30/15 7/20/11
f 7/20/11 18/30/15 17/29/15
f 7/20/11 17/29/15 16/28/14
f 16/28/14 15/27/13 7/20/11
f 15/27/13 14/26/12 7/20/11
f 7/20/11 14/26/12 13/25/9
f 7/20/11 13/25/9 12/24/9
f 7/20/11 12/24/9 11/23/9
f 7/20/11 11/23/9 10/22/9
f 7/20/11 10/22/9 9/21/9
f 9/21/9 8/17/9 7/20/11
f 2/2/2 4/4/3 3/3/2
f 3/3/2 1/1/1 2/2/2
f 5/6/4 6/8/4 4/7/4
f 4/7/4 2/5/4 5/6/4
f 7/10/6 8/12/7 6/11/6
f 6/11/6 5/9/5 7/10/6
f 5/14/8 2/16/8 1/15/8
f 1/15/8 7/13/8 5/14/8

