# ProBuilder 4.5.2
# https://unity3d.com/unity/features/worldbuilding/probuilder
# 21.12.2021 12:10:58

mtllib ./Floor_left.mtl
o Floor left

g Floor left
v -40 2.384186E-07 -48.62146
v -30 2.384186E-07 -48.62146
v -30 0 -20
v -35 0 -20
v -40 0 -20
v -20 2.384186E-07 -48.62146
v -20 0 -20
v -25 0 -20
v -15 0 -47.05288
v -10 0 -47.05288
v -10 0 -20
v -15 0 -20
v -5 0 -47.05288
v 0 0 -47.05288
v 0 0 -20
v -5 0 -20

vt 40 -48.62146
vt 30 -48.62146
vt 30 -20
vt 35 -20
vt 40 -20
vt 20 -48.62146
vt 20 -20
vt 25 -20
vt 15 -47.05288
vt 10 -47.05288
vt 10 -20
vt 15 -20
vt 5 -47.05288
vt 0 -47.05288
vt 0 -20
vt 5 -20

vn 0 1 8.330064E-09

usemtl metal_9_full_Material
f 4/4/1 1/1/1 5/5/1
f 1/1/1 4/4/1 2/2/1
f 4/4/1 3/3/1 2/2/1
f 8/8/1 2/2/1 3/3/1
f 2/2/1 8/8/1 6/6/1
f 8/8/1 7/7/1 6/6/1
f 11/11/1 10/10/1 9/9/1
f 12/12/1 6/6/1 7/7/1
f 12/12/1 9/9/1 6/6/1
f 11/11/1 9/9/1 12/12/1
f 15/15/1 14/14/1 13/13/1
f 16/16/1 10/10/1 11/11/1
f 16/16/1 13/13/1 10/10/1
f 15/15/1 13/13/1 16/16/1

