# ProBuilder 4.5.2
# https://unity3d.com/unity/features/worldbuilding/probuilder
# 21.12.2021 12:10:58

mtllib ./Ground.mtl
o Ground

g Ground
v -146.1266 -4.261016 65.26283
v -149.1301 -4.261016 65.16283
v -149.1301 -4.261015 26.96283
v -149.1301 -4.261015 -39.83717
v -92.06504 -4.261015 -39.83717
v -35 -4.261015 -39.83717
v -32.5 -4.261015 -24.91858
v -18.28078 -4.261017 60.11284
v -30 -4.261015 -10
v -27.5 -4.261015 -10
v -25 -4.261015 -10
v -22.5 -4.261015 -10
v -20 -4.261015 -10
v -17.5 -4.261015 -10
v -15 -4.261015 -10
v -12.5 -4.261015 -10
v -10 -4.261015 -10
v -7.500001 -4.261015 -24.16858
v -5.000002 -4.261015 -38.33717
v 56.28497 -4.261015 -38.33717
v 117.5699 -4.261015 -38.33717
v 117.5699 -4.261015 27.71283
v 117.5699 -4.261016 66.76283
v 114.3444 -4.261016 66.56284

vt 146.1266 65.26283
vt 149.1301 65.16283
vt 149.1301 26.96283
vt 149.1301 -39.83717
vt 92.06504 -39.83717
vt 35 -39.83717
vt 32.5 -24.91858
vt 18.28078 60.11284
vt 30 -10
vt 27.5 -10
vt 25 -10
vt 22.5 -10
vt 20 -10
vt 17.5 -10
vt 15 -10
vt 12.5 -10
vt 10 -10
vt 7.500001 -24.16858
vt 5.000002 -38.33717
vt -56.28497 -38.33717
vt -117.5699 -38.33717
vt -117.5699 27.71283
vt -117.5699 66.76283
vt -114.3444 66.56284

vn 3.760205E-09 1 1.215519E-08

usemtl ground6
f 5/5/1 7/7/1 6/6/1
f 5/5/1 8/8/1 7/7/1
f 5/5/1 4/4/1 3/3/1
f 8/8/1 5/5/1 3/3/1
f 1/1/1 3/3/1 2/2/1
f 1/1/1 8/8/1 3/3/1
f 8/8/1 10/10/1 9/9/1
f 8/8/1 9/9/1 7/7/1
f 8/8/1 12/12/1 11/11/1
f 8/8/1 11/11/1 10/10/1
f 8/8/1 13/13/1 12/12/1
f 8/8/1 14/14/1 13/13/1
f 15/15/1 14/14/1 8/8/1
f 16/16/1 15/15/1 8/8/1
f 17/17/1 16/16/1 8/8/1
f 18/18/1 17/17/1 8/8/1
f 20/20/1 19/19/1 18/18/1
f 8/8/1 20/20/1 18/18/1
f 22/22/1 21/21/1 20/20/1
f 22/22/1 20/20/1 8/8/1
f 8/8/1 24/24/1 22/22/1
f 24/24/1 23/23/1 22/22/1

