# ProBuilder 4.5.2
# https://unity3d.com/unity/features/worldbuilding/probuilder
# 21.12.2021 12:10:58

mtllib ./Pitch_big.mtl
o Pitch big

g Pitch big
v -40 2.384186E-07 -38.33717
v -40 25.63898 -74.10575
v -20 25.63898 -74.10575
v -20 12.81949 -57.83717
v -20 2.384186E-07 -41.56858
v -30 2.384186E-07 -38.33717
v -10 10.25559 -52.27602
v -15 0 -38.13717
v -10 25.63898 -71.79832
v 0 25.63898 -71.79832
v 0 12.81949 -55.52973
v 0 0 -40
v -5 0 -40
v -10 0 -38.13717

vt 39.99697 -30.90902
vt 39.68176 -74.90364
vt 19.68327 -74.75562
vt 19.84088 -54.04848
vt 19.99849 -33.34135
vt 29.99773 -30.83501
vt 9.873156 -47.99052
vt 14.99887 -30.56429
vt 9.684024 -72.83908
vt -0.3152193 -72.76507
vt -0.1576096 -52.05793
vt 0 -31.94079
vt 4.999622 -31.97779
vt 9.999244 -30.52729

vn 0.02350642 0.8237348 0.5656404
vn 0.02350642 0.7986578 0.6004368
vn -0.07068936 0.7815043 0.615818
vn -0.02585804 0.7908277 0.5993205
vn -0.09073506 0.7879793 0.5653382
vn 0.09805845 0.8028996 0.5781205
vn -0.04832428 0.7869494 0.5948985
vn -0.1634717 0.8128293 0.5317752
vn 0 0.785449 0.6189264
vn 0.003135532 0.7806851 0.6248093
vn 0.004703325 0.7692957 0.6388515
vn 0.1068499 0.7791055 0.6073583
vn 0.1068499 0.8001266 0.5803708

usemtl ground13
f 4/4/4 3/3/3 2/2/2
f 1/1/1 4/4/4 2/2/2
f 4/4/4 1/1/1 6/6/6
f 6/6/6 5/5/5 4/4/4
f 5/5/5 7/7/7 4/4/4
f 5/5/5 8/8/8 7/7/7
f 9/9/3 3/3/3 4/4/4
f 7/7/7 9/9/3 4/4/4
f 11/11/10 9/9/3 7/7/7
f 11/11/10 10/10/9 9/9/3
f 8/8/8 14/14/13 7/7/7
f 13/13/12 7/7/7 14/14/13
f 13/13/12 12/12/11 7/7/7
f 12/12/11 11/11/10 7/7/7

