# ProBuilder 4.5.2
# https://unity3d.com/unity/features/worldbuilding/probuilder
# 21.12.2021 12:10:58

mtllib ./Platform_front_right.mtl
o Platform front right

g Platform front right
v 18.09394 -3.714577 -14.78525
v 7.088258 -3.714584 7.464775
v -14.88231 -3.714569 21.59543
v -25.33823 -3.714584 18.73536
v -36.47081 -3.714584 17.62061
v -50.10535 -3.714584 -10.74708
v -35.317 -3.714569 -7.220949
v -36.47081 52.71999 17.62062
v -15.28107 52.72001 30.37008
v -27.28636 52.71999 28.83985
v -50.10535 52.71999 -10.74708
v 8.637634 52.71999 6.134935
v -35.317 52.72001 -7.220943
v 18.09395 52.71999 -14.78525

vt 18.09394 -14.78525
vt 7.088258 7.464775
vt -14.88231 21.59543
vt -25.33823 18.73536
vt -36.47081 17.62061
vt -50.10535 -10.74708
vt -35.317 -7.220949
vt 36.47081 17.62062
vt 15.28107 30.37008
vt 27.28636 28.83986
vt 50.10535 -10.74707
vt -8.637632 6.134938
vt 35.317 -7.220941
vt -18.09395 -14.78525
vt -6.726676 57.83097
vt -18.71031 58.13352
vt -8.657178 0.7738097
vt -19.49721 0.7737942
vt -24.27709 52.72
vt -34.53368 52.72
vt -23.34543 -3.714582
vt -34.53368 -3.714582
vt 0.08240236 52.71999
vt -31.39182 52.71999
vt 0.08239555 -3.714584
vt -31.39183 -3.714584
vt 3.946154 53.5385
vt -29.28069 54.47609
vt 1.923671 -2.411438
vt -24.19876 -2.411422
vt 51.23166 52.71999
vt 36.02873 52.72001
vt 51.23167 -3.714584
vt 36.02874 -3.714569
vt 33.95549 52.72001
vt -19.98845 52.71999
vt 33.9555 -3.71457
vt -19.98843 -3.714577
vt 21.27484 52.85153
vt -1.669385 52.86285
vt 21.27484 -3.577379
vt -3.548313 -3.577387

vn -2.05824E-07 -1 -4.447019E-07
vn 4.627232E-07 -0.3333333 -2.688817E-06
vn 8.427318E-07 1 -8.41601E-06
vn 8.090766E-07 0 -4.394353E-06
vn -0.1249451 -0.1532956 0.9802495
vn -0.1922661 -0.1660872 0.9646289
vn -0.259587 -0.1788788 0.9490084
vn -0.7662988 -0.1387727 0.6273184
vn -0.4329674 -0.06938638 0.8111712
vn -0.09963608 -9.415311E-08 0.995024
vn -0.9012992 1.70004E-08 0.4331971
vn 0.711735 -0.002987712 0.7024417
vn 0.6241838 -0.06446305 0.7684034
vn 0.5366325 -0.1259384 0.8343651
vn 0.2319378 9.938774E-08 -0.9727306
vn -0.1402253 1.098693E-07 -0.9901196
vn 0.9112318 -1.917448E-07 0.411894
vn 0.9037418 -0.007079862 0.4276066
vn 0.8962519 -0.01415953 0.4433193

usemtl ground13
f 7/7/1 1/1/1 2/2/1
f 6/6/1 7/7/1 2/2/1
f 6/6/1 2/2/1 3/3/2
f 6/6/1 3/3/2 5/5/4
f 5/5/4 3/3/2 4/4/3
f 10/10/3 9/9/3 8/8/3
f 8/8/3 9/9/3 11/11/3
f 9/9/3 12/12/3 11/11/3
f 12/12/3 13/13/3 11/11/3
f 12/12/3 14/14/3 13/13/3
f 10/16/6 4/18/7 3/17/6
f 3/17/6 9/15/5 10/16/6
f 8/20/9 5/22/10 4/21/9
f 4/21/9 10/19/8 8/20/9
f 11/24/11 6/26/11 5/25/11
f 5/25/11 8/23/11 11/24/11
f 9/28/13 3/30/14 2/29/13
f 2/29/13 12/27/12 9/28/13
f 13/32/15 7/34/15 6/33/15
f 6/33/15 11/31/15 13/32/15
f 14/36/16 1/38/16 7/37/16
f 7/37/16 13/35/16 14/36/16
f 12/40/18 2/42/19 1/41/18
f 1/41/18 14/39/17 12/40/18

