# ProBuilder 4.5.2
# https://unity3d.com/unity/features/worldbuilding/probuilder
# 21.12.2021 12:10:58

mtllib ./Platform_right.mtl
o Platform right

g Platform right
v 0.4314653 -3.714577 -0.3768317
v -6.057468 -3.714584 27.41003
v -16.92014 -3.714569 50.18996
v -27.61324 -3.714584 47.03917
v -30.09439 -3.714584 25.4371
v -30.04449 -3.714584 13.84441
v -27.84771 -3.714569 1.935249
v -30.09439 33.89998 25.4371
v -16.92014 33.9 28.36083
v -27.61324 33.89998 28.43916
v -30.04449 33.89998 13.84441
v -6.057468 33.89998 24.18091
v -27.84771 33.9 1.935249
v 0.4314651 33.89999 -0.3768311

vt 0.431465 -0.3768315
vt -6.057469 27.41003
vt -16.92014 50.18996
vt -27.61324 47.03917
vt -30.09439 25.4371
vt -30.04449 13.84441
vt -27.84771 1.935249
vt 30.09439 25.4371
vt 16.92014 28.36082
vt 27.61324 28.43915
vt 30.04449 13.8444
vt 6.057467 24.1809
vt 27.84771 1.935242
vt -0.4314659 -0.3768384
vt -8.214222 16.92082
vt -18.44917 15.59336
vt -2.044363 -26.03808
vt -13.192 -26.0381
vt 25.10253 33.89998
vt 21.83697 33.89998
vt 43.58105 -3.714584
vt 21.83697 -3.714584
vt 25.56641 33.89998
vt 13.9736 33.89998
vt 25.56641 -3.714584
vt 13.9736 -3.714584
vt -24.43364 31.69219
vt -32.88207 33.63237
vt -27.34833 -5.137934
vt -52.58567 -5.137918
vt 19.06484 33.89998
vt 6.954764 33.9
vt 19.06484 -3.714585
vt 6.954764 -3.714569
vt 27.91279 33.9
vt -0.4607372 33.89999
vt 27.91279 -3.714569
vt -0.4607373 -3.714577
vt 0.4650761 33.887
vt -24.92487 33.90133
vt 0.4650768 -3.720397
vt -28.06939 -3.720405

vn -2.979252E-07 -1 -3.441415E-07
vn -1.287756E-06 1 5.836502E-07
vn 0.006334295 0.5019262 0.8648872
vn -0.1245188 0.4652433 0.8657799
vn -0.255372 0.4285605 0.8666725
vn -0.735193 0.3004656 0.6076279
vn -0.8643306 0.1502328 0.3608676
vn -0.9934684 0 0.1141073
vn -0.9999908 0 -0.004304399
vn 0.3579797 0.07986472 0.9303076
vn 0.6168507 0.1611039 0.6739488
vn 0.8757217 0.242343 0.41759
vn -0.983409 4.599234E-09 -0.1814018
vn -0.08148723 1.579346E-08 -0.9966744
vn 0.9668185 -1.186459E-09 0.2554641
vn 0.9702164 0.009759312 0.2414138
vn 0.9736143 0.01951863 0.2273635

usemtl ground13
f 7/7/1 1/1/1 2/2/1
f 6/6/1 7/7/1 2/2/1
f 6/6/1 2/2/1 3/3/1
f 6/6/1 3/3/1 5/5/1
f 5/5/1 3/3/1 4/4/1
f 10/10/2 9/9/2 8/8/2
f 8/8/2 9/9/2 11/11/2
f 9/9/2 12/12/2 11/11/2
f 12/12/2 13/13/2 11/11/2
f 12/12/2 14/14/2 13/13/2
f 10/16/4 4/18/5 3/17/4
f 3/17/4 9/15/3 10/16/4
f 8/20/7 5/22/8 4/21/7
f 4/21/7 10/19/6 8/20/7
f 11/24/9 6/26/9 5/25/9
f 5/25/9 8/23/9 11/24/9
f 9/28/11 3/30/12 2/29/11
f 2/29/11 12/27/10 9/28/11
f 13/32/13 7/34/13 6/33/13
f 6/33/13 11/31/13 13/32/13
f 14/36/14 1/38/14 7/37/14
f 7/37/14 13/35/14 14/36/14
f 12/40/16 2/42/17 1/41/16
f 1/41/16 14/39/15 12/40/16

