# ProBuilder 4.5.2
# https://unity3d.com/unity/features/worldbuilding/probuilder
# 21.12.2021 12:10:58

mtllib ./Platform_up_left.mtl
o Platform up left

g Platform up left
v 18.09394 -3.714577 -14.78525
v 9.077242 10.93898 -19.18455
v -12.89333 10.939 -5.053894
v -23.34925 10.93898 -7.91397
v -34.48183 10.93898 -9.028716
v -48.11636 10.93898 -37.39639
v -35.317 -3.714569 -7.220949
v -36.47081 52.71999 17.62062
v -15.28107 52.72001 30.37008
v -27.28636 52.71999 28.83985
v -50.10535 52.71999 -10.74708
v 8.637634 52.71999 6.134935
v -35.317 52.72001 -7.220943
v 18.09395 52.71999 -14.78525

vt -18.30588 -14.47498
vt -8.306657 -20.21619
vt 13.61232 -6.006154
vt 24.04368 -8.782942
vt 35.15012 -9.818176
vt 48.75262 -37.96026
vt 34.97963 -6.590518
vt 36.47081 17.62062
vt 15.28107 30.37008
vt 27.28636 28.83986
vt 50.10535 -10.74707
vt -8.637632 6.134938
vt 35.317 -7.220941
vt -18.09395 -14.78525
vt -6.726671 61.62988
vt -18.7103 62.74255
vt -13.76989 7.270133
vt -24.60993 7.270113
vt -24.27711 61.33976
vt -34.5337 55.81902
vt -24.02157 6.227301
vt -35.20983 6.227301
vt 0.08240668 62.54045
vt -31.39182 62.54045
vt -23.075 18.68238
vt -54.5492 18.68238
vt 3.946156 49.09228
vt -29.28069 53.28767
vt 18.0122 2.71074
vt -8.110234 2.710759
vt 29.45944 52.71999
vt 20.43856 52.72001
vt 53.21632 10.93898
vt 20.43857 -3.71457
vt 33.95549 52.72001
vt -19.98845 52.71999
vt 33.9555 -3.71457
vt -19.98843 -3.714577
vt -2.253751 42.24687
vt 9.897758 48.60209
vt -2.253758 -11.09947
vt -10.91829 4.402377

vn 0.1309259 0.3581031 0.924457
vn -0.007700728 0.07322224 0.4693921
vn 4.627178E-07 -0.3333333 -2.688785E-06
vn 8.427156E-07 1 -8.415914E-06
vn 8.090684E-07 0 -4.394305E-06
vn -0.05134242 -0.3794788 0.1612397
vn -0.01155098 0.6098334 0.7040878
vn -0.09642091 -0.6468822 0.7564697
vn -0.1475716 -0.6523454 0.7414831
vn -0.1987224 -0.6578087 0.7264965
vn -0.6546506 -0.5331255 0.5359195
vn -0.3692967 -0.5359111 0.6871135
vn -0.08394273 -0.5386968 0.8383075
vn -0.8586149 -0.3040962 0.4126814
vn 0.6566319 -0.3858174 0.6480583
vn 0.5517478 -0.4746788 0.6714249
vn 0.4468638 -0.5635403 0.6947915
vn 0.196109 0.5339339 -0.8224694
vn 0.5583583 0.266967 -0.6064793
vn 0.9206075 -2.263579E-08 -0.3904893
vn -0.1402253 1.098693E-07 -0.9901196
vn 0.9112318 -1.917448E-07 0.411894
vn 0.06248736 -0.1631333 0.468316
vn -0.7862571 -0.3262664 0.5247381

usemtl ground13
f 7/7/7 1/1/1 2/2/2
f 6/6/6 7/7/7 2/2/2
f 6/6/6 2/2/2 3/3/3
f 6/6/6 3/3/3 5/5/5
f 5/5/5 3/3/3 4/4/4
f 10/10/4 9/9/4 8/8/4
f 8/8/4 9/9/4 11/11/4
f 9/9/4 12/12/4 11/11/4
f 12/12/4 13/13/4 11/11/4
f 12/12/4 14/14/4 13/13/4
f 10/16/9 4/18/10 3/17/9
f 3/17/9 9/15/8 10/16/9
f 8/20/12 5/22/13 4/21/12
f 4/21/12 10/19/11 8/20/12
f 11/24/14 6/26/14 5/25/14
f 5/25/14 8/23/14 11/24/14
f 9/28/16 3/30/17 2/29/16
f 2/29/16 12/27/15 9/28/16
f 13/32/19 7/34/20 6/33/19
f 6/33/19 11/31/18 13/32/19
f 14/36/21 1/38/21 7/37/21
f 7/37/21 13/35/21 14/36/21
f 12/40/23 2/42/24 1/41/23
f 1/41/23 14/39/22 12/40/23

