# ProBuilder 4.5.2
# https://unity3d.com/unity/features/worldbuilding/probuilder
# 21.12.2021 12:10:58

mtllib ./Rail.mtl
o Rail

g Rail
v 0 0 0
v -35 0 0
v 0 1 0
v -35 1 0
v -35 0 -0.7
v -35 1 -0.7
v 0 0 -0.7
v 0 1 -0.7

vt 0 0
vt -35 0
vt 0 1
vt -35 1
vt -0.7 0
vt -0.7 1
vt 35 0
vt 35 1
vt 0.7 0
vt 0.7 1
vt 0 -0.7
vt 35 -0.7
vt -35 -0.7

vn 0 0 1
vn -1 0 0
vn 0 0 -1
vn 1 0 0
vn 0 1 0
vn 0 -1 0

usemtl metal_6_full_Material
f 3/3/1 4/4/1 2/2/1 1/1/1
f 4/3/2 6/6/2 5/5/2 2/1/2
f 6/8/3 8/3/3 7/1/3 5/7/3
f 8/10/4 3/3/4 1/1/4 7/9/4
f 8/11/5 6/12/5 4/7/5 3/1/5
f 1/1/6 2/2/6 5/13/6 7/11/6

