# ProBuilder 4.5.2
# https://unity3d.com/unity/features/worldbuilding/probuilder
# 21.12.2021 12:10:58

mtllib ./TargetHill.mtl
o TargetHill

g TargetHill
v 0 6.6301 0
v -1.765734 6.6301 -3.867798
v -37.66901 6.6301 -3.783714
v -39.93924 6.6301 -0.252243
v -37.66901 0 -3.417957
v -1.765734 0 -3.502041
v 0 0 0
v -1.765734 4.400099 -3.867798
v 0 5.63 3.166122
v -39.93924 0 -0.252243
v 8.560001 0 12.56612
v -49.64 0 12.31389
v 8.560001 4.400099 12.56612
v -39.93924 5.63 2.913879
v -49.64 4.400099 12.31389
v -39.93924 17.2301 2.913879
v 0 17.2301 3.166122
v -49.64 17.2301 12.31389
v 8.560001 17.2301 12.56612
v -49.64 11.9301 12.31389
v -39.93924 11.9301 2.913879
v 0 11.9301 3.166122
v 8.560001 11.9301 12.56612
v -37.66901 4.400099 -3.783714

vt 0 0
vt 1.765734 -3.867798
vt 37.66901 -3.783714
vt 39.93924 -0.252243
vt 37.6609 0.2067669
vt 1.757527 0.2067669
vt 3.868154 0.0118529
vt 4.217455 4.40923
vt -3.023679 5.646242
vt 15.19999 -0.8680269
vt 11.40293 -0.8475649
vt 8.61438 8.211318E-10
vt -49.58617 8.211318E-10
vt -39.93924 -0.252243
vt 8.560001 12.56612
vt -49.64 12.31389
vt -2.451799 5.724301
vt -15.14705 4.461452
vt -15.14705 0.06700891
vt 26.95015 -1.60405
vt 29.27331 4.134664
vt 42.76144 -1.5268
vt 42.76144 2.86678
vt 39.93924 2.913879
vt 0 3.166122
vt 49.64 12.31389
vt -8.560001 12.56612
vt 39.92004 5.63
vt -0.01999578 5.63
vt 42.76144 10.38562
vt 29.27331 10.42543
vt -2.451799 12.0163
vt -15.14705 11.98177
vt 8.61438 4.400099
vt -49.58617 4.400099
vt 39.92004 11.9301
vt -0.01999578 11.9301
vt 39.92004 17.2301
vt -0.01999578 17.2301
vt 42.76144 15.67777
vt 29.27331 15.71758
vt -2.451799 17.30949
vt -15.14705 17.27496
vt 8.61438 11.9301
vt -49.58617 11.9301
vt 8.61438 17.2301
vt -49.58617 17.2301
vt 37.66004 4.620778
vt 1.756671 4.620778
vt 37.66004 6.846898
vt 1.756671 6.846898
vt 4.217455 6.638858
vt 0 6.62899
vt 18.1202 4.78917
vt 11.06558 3.547997
vt 15.19999 5.760242
vt 11.06558 5.777383
vt -0.01123163 1.323303
vt 39.92793 1.058775
vt -0.01322679 -1.997017
vt 39.92593 -2.261545

vn 0 1 0
vn -0.002333891 -0.08283878 -0.9965602
vn 0.892297 -0.03739759 -0.4498973
vn 0.9224418 0.055873 -0.3575522
vn 0.9382635 0.03724866 -0.3195271
vn 0.8244035 -0.2155949 -0.2533661
vn -0.7722248 0.311431 -0.5537866
vn -0.8602139 0.142558 -0.4351798
vn -0.00433377 0 0.9999906
vn 0 -1 0
vn 0.7280155 0.1709286 -0.640595
vn 0.7715635 0.1709286 -0.5854385
vn 0.7554668 0.0854643 -0.6293689
vn 0.8264662 0 -0.5629863
vn -0.7486029 0.3249937 -0.5779039
vn -0.7090659 0.08124842 -0.6830896
vn -0.7222449 0.1624968 -0.6480277
vn -0.6958869 0 -0.7181515
vn 0.006315544 0 -0.99998
vn 0.7393701 0 -0.6732993
vn -0.002336574 -0.05522585 -0.9977059
vn -0.002339257 -0.02761293 -0.9988516
vn -0.00234194 0 -0.9999973
vn 0.7603118 -0.3979642 -0.2474456
vn 0.5507168 -0.7959284 -0.2514142
vn -0.8450597 -0.0892559 -0.348334
vn -0.8680442 -0.1930662 -0.343991
vn -0.8279648 -0.2764418 -0.3577001
vn -0.8411783 0 -0.5407578
vn -0.001902313 0.9535574 0.3012053

usemtl ground11
f 8/8/5 7/1/4 6/7/3
f 8/8/5 9/9/6 7/1/4
f 2/52/24 9/9/6 8/8/5
f 2/52/24 1/53/25 9/9/6
f 13/18/13 7/1/12 9/17/11
f 13/18/13 11/19/14 7/1/12
f 22/32/20 13/18/13 9/17/11
f 22/32/20 23/33/20 13/18/13
f 17/42/20 23/33/20 22/32/20
f 17/42/20 19/43/20 23/33/20
f 19/46/9 20/45/9 23/44/9
f 19/46/9 18/47/9 20/45/9
f 23/44/9 15/35/9 13/34/9
f 23/44/9 20/45/9 15/35/9
f 13/34/9 12/13/9 11/12/9
f 13/34/9 15/35/9 12/13/9
f 12/16/10 10/14/10 7/1/10
f 7/1/10 11/15/10 12/16/10
f 4/61/30 14/59/30 9/58/30
f 9/58/30 1/60/30 4/61/30

usemtl ground11
f 16/38/19 22/37/19 21/36/19
f 16/38/19 17/39/19 22/37/19
f 21/36/19 9/29/19 14/28/19
f 21/36/19 22/37/19 9/29/19
f 3/50/23 8/49/22 24/48/21
f 3/50/23 2/51/23 8/49/22
f 24/48/21 6/6/2 5/5/2
f 24/48/21 8/49/22 6/6/2
f 4/56/28 24/55/27 14/54/26
f 4/56/28 3/57/29 24/55/27
f 14/54/26 5/11/8 10/10/7
f 14/54/26 24/55/27 5/11/8
f 12/22/17 14/21/16 10/20/15
f 12/22/17 15/23/18 14/21/16
f 20/30/18 14/21/16 15/23/18
f 20/30/18 21/31/18 14/21/16
f 18/40/18 21/31/18 20/30/18
f 18/40/18 16/41/18 21/31/18
f 1/1/1 2/2/1 3/3/1
f 3/3/1 4/4/1 1/1/1
f 19/27/1 17/25/1 16/24/1
f 16/24/1 18/26/1 19/27/1

